<?xml version="1.0" encoding="UTF-8"?>
<svg xmlns="http://www.w3.org/2000/svg" viewBox="0 0 1200 760" role="img" aria-labelledby="title desc">
 <title id="title">Each wedge face straight on</title><desc id="desc">Professional Teevo photo guidance artwork showing each wedge face straight on</desc>
 <defs>
  <linearGradient id="metal" x1="0" y1="0" x2="1" y2="1"><stop stop-color="#F7FBF9"/><stop offset=".45" stop-color="#C6D7D1"/><stop offset="1" stop-color="#8FA9A0"/></linearGradient>
  <linearGradient id="green" x1="0" y1="0" x2="1" y2="1"><stop stop-color="#64D29A"/><stop offset="1" stop-color="#2E9D6B"/></linearGradient>
  <filter id="shadow" x="-25%" y="-25%" width="150%" height="160%"><feDropShadow dx="0" dy="14" stdDeviation="10" flood-color="#173F35" flood-opacity=".15"/></filter>
 </defs>
 <rect width="1200" height="760" rx="52" fill="#FDFCF5"/>
 <path d="M0 628c188-86 345-68 478 3 127 68 262 75 402 10 98-45 196-54 320-21v140H0Z" fill="#BDEFD4" opacity=".42"/>
 <g fill="none" stroke="#265C4B" stroke-width="8" stroke-linecap="round" opacity=".45"><path d="M128 175v-36h36M1036 139h36v36M1072 582v36h-36M164 618h-36v-36"/></g>
 <g fill="none" stroke="#FFD25E" stroke-width="11" stroke-linecap="round"><path d="M91 247h38M110 228v38"/><path d="m1050 228 20-28m9 52 32-5"/></g>
 <g filter="url(#shadow)" stroke="#173F35" stroke-linejoin="round"><path d="M455 112h69l27 194-81 17Z" fill="#265C4B" stroke-width="11"/><path d="m465 294 282-40q48-5 59 43l38 222q8 47-41 62l-315 45q-51 4-61-45l-24-213q-5-46 62-74Z" fill="url(#metal)" stroke-width="12"/><path d="m492 333 249-34q31-3 38 30l25 168q5 32-30 41l-278 39q-32 2-39-31l-18-160q-3-32 53-53Z" fill="undefined" stroke-width="7"/><g stroke="#173F35" stroke-width="7" stroke-linecap="round"><path d="m500 365 272-37"/><path d="m494 404 284-38"/><path d="m491 443 293-40"/><path d="m492 482 297-40"/><path d="m498 521 294-40"/></g><circle cx="638" cy="449" r="7" fill="#FFD25E" stroke="none"/></g><ellipse cx="624" cy="435" rx="211" ry="181" fill="none" stroke="#FFD25E" stroke-width="8" stroke-dasharray="14 13"/>
</svg>
