<?xml version="1.0" encoding="UTF-8"?>
<svg xmlns="http://www.w3.org/2000/svg" viewBox="0 0 1200 760" role="img" aria-labelledby="title desc">
 <title id="title">Whole iron in frame</title><desc id="desc">Professional Teevo photo guidance artwork showing whole iron in frame</desc>
 <defs>
  <linearGradient id="metal" x1="0" y1="0" x2="1" y2="1"><stop stop-color="#F7FBF9"/><stop offset=".45" stop-color="#C6D7D1"/><stop offset="1" stop-color="#8FA9A0"/></linearGradient>
  <linearGradient id="green" x1="0" y1="0" x2="1" y2="1"><stop stop-color="#64D29A"/><stop offset="1" stop-color="#2E9D6B"/></linearGradient>
  <filter id="shadow" x="-25%" y="-25%" width="150%" height="160%"><feDropShadow dx="0" dy="14" stdDeviation="10" flood-color="#173F35" flood-opacity=".15"/></filter>
 </defs>
 <rect width="1200" height="760" rx="52" fill="#FDFCF5"/>
 <path d="M0 628c188-86 345-68 478 3 127 68 262 75 402 10 98-45 196-54 320-21v140H0Z" fill="#BDEFD4" opacity=".42"/>
 <g fill="none" stroke="#265C4B" stroke-width="8" stroke-linecap="round" opacity=".45"><path d="M128 175v-36h36M1036 139h36v36M1072 582v36h-36M164 618h-36v-36"/></g>
 <g fill="none" stroke="#FFD25E" stroke-width="11" stroke-linecap="round"><path d="M91 247h38M110 228v38"/><path d="m1050 228 20-28m9 52 32-5"/></g>
 <g filter="url(#shadow)" transform="rotate(-13 600 385)" stroke="#173F35" stroke-linejoin="round" stroke-linecap="round"><g stroke="#173F35" stroke-linecap="round"><rect x="558" y="66" width="57" height="148" rx="21.66" fill="url(#green)" stroke-width="9"/><path d="M568 94h37M566 124h41M566 154h41M569 184h35" stroke="#BDEFD4" stroke-width="7"/></g><path d="M586 212 634 545" fill="none" stroke="#173F35" stroke-width="20" stroke-linecap="round"/><path d="M586 212 634 545" fill="none" stroke="#FFD25E" stroke-width="7.6" stroke-linecap="round"/><path d="M634 522v67" stroke-width="35"/><path d="M621 573 807 543q39-5 50 31l18 58q8 28-27 36l-226 22q-39 0-47-31l-8-34q-7-29 54-52Z" fill="url(#metal)" stroke-width="11"/><path d="m635 597 167-28 18 55-177 22Z" fill="#49C184" stroke-width="8"/><g transform="translate(700 587) scale(0.5)" fill="#173F35"><path d="M0 0h56v12H35v38H21V12H0Z"/><circle cx="28" cy="67" r="8"/></g></g>
</svg>
